<?xml version="1.0" standalone="no"?>
<!DOCTYPE svg PUBLIC "-//W3C//DTD SVG 20010904//EN"
 "http://www.w3.org/TR/2001/REC-SVG-20010904/DTD/svg10.dtd">
<svg version="1.0" xmlns="http://www.w3.org/2000/svg"
 width="352.000000pt" height="96.000000pt" viewBox="0 0 352.000000 96.000000"
 preserveAspectRatio="xMidYMid meet">

<g transform="translate(0.000000,96.000000) scale(0.100000,-0.100000)"
fill="#000000" stroke="none">
<path d="M568 831 c83 -40 159 -118 203 -206 32 -66 34 -75 34 -175 0 -70 -4
-112 -13 -125 -10 -14 -12 -15 -8 -3 3 9 0 18 -6 20 -7 3 -11 28 -10 69 2 55
-3 74 -29 123 -46 90 -86 140 -146 185 -31 23 -59 41 -63 41 -7 0 -60 -199
-60 -223 0 -4 15 -7 34 -7 32 0 35 3 51 50 9 27 20 52 25 55 16 10 49 -46 60
-101 19 -90 0 -159 -60 -224 -29 -31 -31 -39 -32 -107 0 -41 2 -76 5 -79 2 -3
31 5 63 17 44 16 75 39 121 85 87 86 107 134 107 254 0 82 -3 103 -26 152 -50
109 -168 203 -278 223 -28 5 -23 1 28 -24z"/>
<path d="M295 822 c-77 -37 -149 -108 -183 -180 -24 -50 -27 -69 -27 -157 0
-90 3 -105 28 -152 49 -94 129 -167 218 -199 60 -20 58 -11 -3 24 -77 44 -136
107 -177 192 -32 67 -36 83 -35 155 0 44 6 98 14 120 l13 40 12 -29 c8 -19 9
-43 3 -75 -5 -27 -5 -54 1 -66 58 -128 79 -162 128 -211 30 -30 58 -54 62 -54
5 0 13 11 19 25 11 23 8 28 -27 60 -53 48 -71 90 -71 166 0 74 24 131 75 178
34 31 35 33 35 111 0 57 -4 80 -12 80 -7 0 -40 -13 -73 -28z"/>
<path d="M451 754 c0 -11 3 -14 6 -6 3 7 2 16 -1 19 -3 4 -6 -2 -5 -13z"/>
<path d="M3260 741 c-18 -44 -6 -90 23 -91 4 0 7 27 7 60 0 65 -11 77 -30 31z"/>
<path d="M442 710 c0 -14 2 -19 5 -12 2 6 2 18 0 25 -3 6 -5 1 -5 -13z"/>
<path d="M2496 665 c-3 -8 -1 -15 4 -15 6 0 10 7 10 15 0 8 -2 15 -4 15 -2 0
-6 -7 -10 -15z"/>
<path d="M427 618 c-4 -31 -10 -63 -13 -72 -3 -9 -1 -16 4 -16 13 0 25 73 20
116 -2 21 -5 13 -11 -28z"/>
<path d="M1741 618 l-11 -28 -142 0 c-110 0 -139 3 -130 12 7 7 12 16 12 20 0
5 -25 -20 -56 -54 -31 -35 -60 -64 -64 -66 -8 -3 -48 37 -109 108 -20 23 -21
23 -11 3 l11 -23 -146 0 c-109 0 -145 3 -146 13 -1 6 -5 1 -9 -13 -4 -14 -8
-103 -9 -197 l-1 -173 91 0 91 0 -4 160 c-2 88 -1 160 3 160 4 0 57 -58 118
-130 62 -72 115 -130 119 -130 4 0 56 59 116 130 60 72 113 130 118 130 4 0 8
-72 8 -160 l0 -160 85 0 85 0 0 58 c1 48 2 54 12 37 17 -29 47 -53 93 -75 38
-19 69 -20 649 -20 453 0 619 3 650 12 24 7 59 30 84 55 l42 42 0 -49 0 -50
90 0 90 0 0 193 0 192 -80 -3 c-61 -3 -80 0 -81 10 -3 38 -17 -47 -18 -107
l-1 -70 -19 30 c-52 84 -87 94 -346 95 -221 0 -235 3 -235 44 0 16 -3 17 -9 8
-6 -10 -30 -13 -90 -10 -78 3 -81 2 -81 -19 l0 -23 -200 0 -200 0 0 -60 0 -60
115 0 115 0 0 -51 0 -50 -176 3 -176 3 -23 27 c-33 38 -45 170 -20 219 l18 34
-25 -22 c-20 -19 -36 -23 -95 -23 -69 0 -72 1 -81 28 l-10 27 -11 -27z m807
-108 c44 -60 66 -65 297 -68 246 -3 255 -4 255 -35 0 -46 -8 -47 -302 -47
l-278 0 0 74 c0 41 -3 81 -6 90 -10 26 11 18 34 -14z"/>
<path d="M930 142 c0 -5 7 -9 15 -9 8 0 12 4 9 9 -7 10 -24 10 -24 0z"/>
<path d="M1005 140 c-3 -6 1 -7 9 -4 18 7 21 14 7 14 -6 0 -13 -4 -16 -10z"/>
<path d="M1175 140 c3 -5 8 -10 11 -10 2 0 4 5 4 10 0 6 -5 10 -11 10 -5 0 -7
-4 -4 -10z"/>
<path d="M1344 138 c-4 -7 -3 -8 4 -4 8 4 16 -3 22 -18 13 -36 21 -32 9 4 -11
32 -23 38 -35 18z"/>
<path d="M1412 120 c0 -19 2 -27 5 -17 2 9 2 25 0 35 -3 9 -5 1 -5 -18z"/>
<path d="M1510 139 c0 -5 5 -7 10 -4 6 3 10 8 10 11 0 2 -4 4 -10 4 -5 0 -10
-5 -10 -11z"/>
<path d="M1615 118 c-13 -28 -14 -30 -1 -13 9 11 20 26 26 33 7 8 7 12 1 12
-6 0 -18 -15 -26 -32z"/>
<path d="M1690 141 c0 -6 4 -12 8 -15 5 -3 9 1 9 9 0 8 -4 15 -9 15 -4 0 -8
-4 -8 -9z"/>
<path d="M1925 130 c10 -11 20 -18 23 -15 7 6 -18 35 -31 35 -5 0 -2 -9 8 -20z"/>
<path d="M1995 141 c-3 -5 -2 -12 3 -15 5 -3 9 1 9 9 0 17 -3 19 -12 6z"/>
<path d="M2304 125 c-16 -24 -17 -24 -31 -8 -13 16 -13 16 -3 -4 14 -30 22
-29 42 7 21 36 15 40 -8 5z"/>
<path d="M2360 141 c0 -6 4 -12 8 -15 5 -3 9 1 9 9 0 8 -4 15 -9 15 -4 0 -8
-4 -8 -9z"/>
<path d="M2521 148 c2 -2 20 -16 39 -33 l35 -30 -29 33 c-17 17 -34 32 -40 32
-5 0 -7 -1 -5 -2z"/>
<path d="M2760 118 c0 -36 11 -31 15 7 2 14 -1 25 -6 25 -5 0 -9 -14 -9 -32z"/>
<path d="M2965 140 c-3 -6 1 -7 9 -4 18 7 21 14 7 14 -6 0 -13 -4 -16 -10z"/>
<path d="M3058 120 c2 -16 6 -30 8 -30 2 0 4 14 4 30 0 17 -4 30 -8 30 -5 0
-7 -13 -4 -30z"/>
<path d="M3230 143 c8 -4 23 -17 33 -30 10 -12 22 -23 27 -23 4 0 -5 14 -20
30 -15 17 -34 30 -42 29 -10 0 -9 -2 2 -6z"/>
<path d="M3346 142 c6 -4 14 -16 17 -26 4 -10 10 -16 13 -13 9 8 -15 47 -29
47 -8 0 -9 -3 -1 -8z"/>
<path d="M1650 121 c0 -6 4 -13 10 -16 6 -3 7 1 4 9 -7 18 -14 21 -14 7z"/>
<path d="M2690 120 c0 -5 5 -10 10 -10 6 0 10 5 10 10 0 6 -4 10 -10 10 -5 0
-10 -4 -10 -10z"/>
<path d="M2894 111 c20 -22 26 -25 26 -13 0 4 -10 13 -22 21 -23 14 -23 14 -4
-8z"/>
<path d="M2990 121 c0 -6 4 -13 10 -16 6 -3 7 1 4 9 -7 18 -14 21 -14 7z"/>
<path d="M3326 113 c-6 -14 -5 -15 5 -6 7 7 10 15 7 18 -3 3 -9 -2 -12 -12z"/>
<path d="M931 104 c0 -11 3 -14 6 -6 3 7 2 16 -1 19 -3 4 -6 -2 -5 -13z"/>
<path d="M966 105 c4 -8 11 -15 16 -15 6 0 5 6 -2 15 -7 8 -14 15 -16 15 -2 0
-1 -7 2 -15z"/>
<path d="M1326 103 c-6 -14 -5 -15 5 -6 7 7 10 15 7 18 -3 3 -9 -2 -12 -12z"/>
<path d="M1756 107 c3 -10 9 -15 12 -12 3 3 0 11 -7 18 -10 9 -11 8 -5 -6z"/>
<path d="M2946 103 c-6 -14 -5 -15 5 -6 7 7 10 15 7 18 -3 3 -9 -2 -12 -12z"/>
</g>
</svg>
